<svg width="18" height="15" viewBox="0 0 18 15" fill="none" xmlns="http://www.w3.org/2000/svg">
<path d="M17.4 13.2H16.8V3C16.8 2.84087 16.7368 2.68826 16.6243 2.57574C16.5117 2.46321 16.3591 2.4 16.2 2.4H13.2V0.6C13.2 0.44087 13.1368 0.288258 13.0243 0.175736C12.9117 0.0632142 12.7591 0 12.6 0H5.4C5.24087 0 5.08826 0.0632142 4.97574 0.175736C4.86321 0.288258 4.8 0.44087 4.8 0.6V4.8H1.8C1.64087 4.8 1.48826 4.86321 1.37574 4.97574C1.26321 5.08826 1.2 5.24087 1.2 5.4V13.2H0.6C0.44087 13.2 0.288258 13.2632 0.175736 13.3757C0.0632141 13.4883 0 13.6409 0 13.8C0 13.9591 0.0632141 14.1117 0.175736 14.2243C0.288258 14.3368 0.44087 14.4 0.6 14.4H17.4C17.5591 14.4 17.7117 14.3368 17.8243 14.2243C17.9368 14.1117 18 13.9591 18 13.8C18 13.6409 17.9368 13.4883 17.8243 13.3757C17.7117 13.2632 17.5591 13.2 17.4 13.2ZM5.4 10.8H4.2C4.04087 10.8 3.88826 10.7368 3.77574 10.6243C3.66321 10.5117 3.6 10.3591 3.6 10.2C3.6 10.0409 3.66321 9.88826 3.77574 9.77573C3.88826 9.66321 4.04087 9.6 4.2 9.6H5.4C5.55913 9.6 5.71174 9.66321 5.82426 9.77573C5.93679 9.88826 6 10.0409 6 10.2C6 10.3591 5.93679 10.5117 5.82426 10.6243C5.71174 10.7368 5.55913 10.8 5.4 10.8ZM5.4 8.4H4.2C4.04087 8.4 3.88826 8.33679 3.77574 8.22426C3.66321 8.11174 3.6 7.95913 3.6 7.8C3.6 7.64087 3.66321 7.48826 3.77574 7.37573C3.88826 7.26321 4.04087 7.2 4.2 7.2H5.4C5.55913 7.2 5.71174 7.26321 5.82426 7.37573C5.93679 7.48826 6 7.64087 6 7.8C6 7.95913 5.93679 8.11174 5.82426 8.22426C5.71174 8.33679 5.55913 8.4 5.4 8.4ZM10.2 13.2H7.8V10.2H10.2V13.2ZM9.6 8.4H8.4C8.24087 8.4 8.08826 8.33679 7.97574 8.22426C7.86321 8.11174 7.8 7.95913 7.8 7.8C7.8 7.64087 7.86321 7.48826 7.97574 7.37573C8.08826 7.26321 8.24087 7.2 8.4 7.2H9.6C9.75913 7.2 9.91174 7.26321 10.0243 7.37573C10.1368 7.48826 10.2 7.64087 10.2 7.8C10.2 7.95913 10.1368 8.11174 10.0243 8.22426C9.91174 8.33679 9.75913 8.4 9.6 8.4ZM9.6 6H8.4C8.24087 6 8.08826 5.93679 7.97574 5.82426C7.86321 5.71174 7.8 5.55913 7.8 5.4C7.8 5.24087 7.86321 5.08826 7.97574 4.97574C8.08826 4.86321 8.24087 4.8 8.4 4.8H9.6C9.75913 4.8 9.91174 4.86321 10.0243 4.97574C10.1368 5.08826 10.2 5.24087 10.2 5.4C10.2 5.55913 10.1368 5.71174 10.0243 5.82426C9.91174 5.93679 9.75913 6 9.6 6ZM9.6 3.6H8.4C8.24087 3.6 8.08826 3.53679 7.97574 3.42426C7.86321 3.31174 7.8 3.15913 7.8 3C7.8 2.84087 7.86321 2.68826 7.97574 2.57574C8.08826 2.46321 8.24087 2.4 8.4 2.4H9.6C9.75913 2.4 9.91174 2.46321 10.0243 2.57574C10.1368 2.68826 10.2 2.84087 10.2 3C10.2 3.15913 10.1368 3.31174 10.0243 3.42426C9.91174 3.53679 9.75913 3.6 9.6 3.6ZM13.8 10.8H12.6C12.4409 10.8 12.2883 10.7368 12.1757 10.6243C12.0632 10.5117 12 10.3591 12 10.2C12 10.0409 12.0632 9.88826 12.1757 9.77573C12.2883 9.66321 12.4409 9.6 12.6 9.6H13.8C13.9591 9.6 14.1117 9.66321 14.2243 9.77573C14.3368 9.88826 14.4 10.0409 14.4 10.2C14.4 10.3591 14.3368 10.5117 14.2243 10.6243C14.1117 10.7368 13.9591 10.8 13.8 10.8ZM13.8 8.4H12.6C12.4409 8.4 12.2883 8.33679 12.1757 8.22426C12.0632 8.11174 12 7.95913 12 7.8C12 7.64087 12.0632 7.48826 12.1757 7.37573C12.2883 7.26321 12.4409 7.2 12.6 7.2H13.8C13.9591 7.2 14.1117 7.26321 14.2243 7.37573C14.3368 7.48826 14.4 7.64087 14.4 7.8C14.4 7.95913 14.3368 8.11174 14.2243 8.22426C14.1117 8.33679 13.9591 8.4 13.8 8.4ZM13.8 6H12.6C12.4409 6 12.2883 5.93679 12.1757 5.82426C12.0632 5.71174 12 5.55913 12 5.4C12 5.24087 12.0632 5.08826 12.1757 4.97574C12.2883 4.86321 12.4409 4.8 12.6 4.8H13.8C13.9591 4.8 14.1117 4.86321 14.2243 4.97574C14.3368 5.08826 14.4 5.24087 14.4 5.4C14.4 5.55913 14.3368 5.71174 14.2243 5.82426C14.1117 5.93679 13.9591 6 13.8 6Z" fill="#A0C8F7"/>
</svg>
