<svg width="19" height="19" viewBox="0 0 19 19" fill="none" xmlns="http://www.w3.org/2000/svg">
<g clip-path="url(#clip0_2226_79)">
<path d="M11.6799 7.91667C12.4447 7.91667 13.0653 8.53733 13.0653 9.30208V11.875H13.0622V12.6667H5.93717V10.2917H5.93876V9.30208C5.93876 8.53733 6.55863 7.91667 7.32417 7.91667H11.6799ZM17.4163 9.30208C17.4163 8.93465 17.2704 8.58226 17.0106 8.32245C16.7507 8.06263 16.3984 7.91667 16.0309 7.91667H13.359C13.6702 8.29271 13.857 8.77563 13.857 9.30208V10.2917H13.8538V12.6667H16.8226C16.9801 12.6667 17.1311 12.6041 17.2424 12.4928C17.3538 12.3814 17.4163 12.2304 17.4163 12.0729V9.30208ZM5.14551 11.875H5.14709V9.30208L5.15422 9.12792C5.18736 8.68282 5.35899 8.25927 5.64505 7.91667H2.96842L2.85442 7.92142C2.50791 7.95003 2.18482 8.10788 1.9493 8.36365C1.71377 8.61941 1.58302 8.95439 1.58301 9.30208V12.0729C1.58301 12.4007 1.84901 12.6667 2.17676 12.6667H5.14551V11.875ZM9.49967 2.375C10.1296 2.375 10.7337 2.62522 11.1791 3.07062C11.6245 3.51602 11.8747 4.12011 11.8747 4.75C11.8747 5.37989 11.6245 5.98398 11.1791 6.42938C10.7337 6.87478 10.1296 7.125 9.49967 7.125C8.86978 7.125 8.26569 6.87478 7.8203 6.42938C7.3749 5.98398 7.12467 5.37989 7.12467 4.75C7.12467 4.12011 7.3749 3.51602 7.8203 3.07062C8.26569 2.62522 8.86978 2.375 9.49967 2.375ZM14.6455 3.16667C15.1704 3.16667 15.6738 3.37519 16.045 3.74635C16.4162 4.11752 16.6247 4.62093 16.6247 5.14583C16.6247 5.67074 16.4162 6.17415 16.045 6.54532C15.6738 6.91648 15.1704 7.125 14.6455 7.125C14.1206 7.125 13.6172 6.91648 13.246 6.54532C12.8749 6.17415 12.6663 5.67074 12.6663 5.14583C12.6663 4.62093 12.8749 4.11752 13.246 3.74635C13.6172 3.37519 14.1206 3.16667 14.6455 3.16667ZM4.35384 3.16667C4.87875 3.16667 5.38216 3.37519 5.75332 3.74635C6.12449 4.11752 6.33301 4.62093 6.33301 5.14583C6.33301 5.67074 6.12449 6.17415 5.75332 6.54532C5.38216 6.91648 4.87875 7.125 4.35384 7.125C3.82893 7.125 3.32552 6.91648 2.95436 6.54532C2.58319 6.17415 2.37467 5.67074 2.37467 5.14583C2.37467 4.62093 2.58319 4.11752 2.95436 3.74635C3.32552 3.37519 3.82893 3.16667 4.35384 3.16667ZM1.58301 14.0521C1.58301 13.8946 1.64556 13.7436 1.75691 13.6322C1.86826 13.5209 2.01929 13.4583 2.17676 13.4583H16.8226C16.9801 13.4583 17.1311 13.5209 17.2424 13.6322C17.3538 13.7436 17.4163 13.8946 17.4163 14.0521V14.4479C17.4163 15.2353 17.1036 15.9904 16.5468 16.5471C15.9901 17.1039 15.235 17.4167 14.4476 17.4167H4.55176C3.7644 17.4167 3.00928 17.1039 2.45253 16.5471C1.89579 15.9904 1.58301 15.2353 1.58301 14.4479V14.0521Z" fill="#BE735B"/>
</g>
<defs>
<clipPath id="clip0_2226_79">
<rect width="19" height="19" fill="white"/>
</clipPath>
</defs>
</svg>
