<svg width="16" height="16" viewBox="0 0 16 16" fill="none" xmlns="http://www.w3.org/2000/svg">
<path d="M14 7.40699V3.33366C14 2.98004 13.8595 2.6409 13.6095 2.39085C13.3594 2.1408 13.0203 2.00033 12.6667 2.00033H9.88C9.6 1.22699 8.86667 0.666992 8 0.666992C7.13333 0.666992 6.4 1.22699 6.12 2.00033H3.33333C2.6 2.00033 2 2.60033 2 3.33366V12.667C2 13.0206 2.14048 13.3598 2.39052 13.6098C2.64057 13.8598 2.97971 14.0003 3.33333 14.0003H7.40667C8.24667 14.827 9.39333 15.3337 10.6667 15.3337C13.2467 15.3337 15.3333 13.247 15.3333 10.667C15.3333 9.39366 14.8267 8.24699 14 7.40699ZM8 2.00033C8.36667 2.00033 8.66667 2.30033 8.66667 2.66699C8.66667 3.03366 8.36667 3.33366 8 3.33366C7.63333 3.33366 7.33333 3.03366 7.33333 2.66699C7.33333 2.30033 7.63333 2.00033 8 2.00033ZM4 4.66699H12V6.00033H4V4.66699ZM6.05333 11.3337H4V10.0003H6.05333C6.02 10.2203 6 10.4403 6 10.667C6 10.8937 6.02 11.1137 6.05333 11.3337ZM4 8.66699V7.33366H7.40667C7 7.71366 6.69333 8.16699 6.45333 8.66699H4ZM10.6667 14.0003C8.82667 14.0003 7.33333 12.507 7.33333 10.667C7.33333 8.82699 8.82667 7.33366 10.6667 7.33366C12.5067 7.33366 14 8.82699 14 10.667C14 12.507 12.5067 14.0003 10.6667 14.0003ZM11 10.8337L12.9067 11.9603L12.4067 12.7737L10 11.3337V8.00033H11V10.8337Z" fill="#57914D"/>
</svg>
